<?xml version="1.0" standalone="no"?>
<!DOCTYPE svg PUBLIC "-//W3C//DTD SVG 20010904//EN"
 "http://www.w3.org/TR/2001/REC-SVG-20010904/DTD/svg10.dtd">
<svg version="1.0" xmlns="http://www.w3.org/2000/svg"
 width="260.000000pt" height="260.000000pt" viewBox="0 0 260.000000 260.000000"
 preserveAspectRatio="xMidYMid meet">
<metadata>
Created by potrace 1.11, written by Peter Selinger 2001-2013
</metadata>
<g transform="translate(0.000000,260.000000) scale(0.100000,-0.100000)"
fill="#000000" stroke="none">
<path d="M295 2580 c-118 -38 -220 -132 -268 -250 l-22 -55 0 -975 0 -975 22
-55 c49 -120 150 -213 271 -250 62 -19 96 -20 1002 -20 906 0 940 1 1002 20
121 37 222 130 271 250 l22 55 0 975 0 975 -22 55 c-49 120 -150 213 -271 250
-62 19 -95 20 -1006 19 -899 0 -944 -1 -1001 -19z m853 -971 l3 -66 -47 -7
c-56 -7 -74 -20 -74 -52 0 -21 5 -23 58 -26 l57 -3 3 -72 3 -73 -61 0 -60 0 0
-190 0 -190 -80 0 -80 0 0 298 c0 164 5 313 10 332 22 78 99 120 215 117 l50
-2 3 -66z m310 0 l3 -66 -50 -7 c-35 -5 -54 -13 -61 -26 -21 -40 -13 -49 48
-52 l57 -3 3 -72 3 -73 -61 0 -60 0 0 -190 0 -190 -81 0 -80 0 3 313 c3 291 4
314 23 346 38 65 99 91 205 87 l45 -1 3 -66z m200 -41 l3 -108 54 0 55 0 0
-75 0 -75 -55 0 -55 0 0 -99 c0 -115 9 -131 71 -131 l39 0 0 -75 0 -75 -35 0
c-67 0 -136 21 -172 53 -65 57 -67 70 -71 385 -2 156 -1 290 2 298 4 12 22 14
83 12 l78 -3 3 -107z m-984 -127 c135 -59 197 -235 130 -369 -98 -197 -380
-199 -481 -3 -69 132 -33 260 100 361 55 41 171 47 251 11z m1491 5 c46 -20
113 -82 137 -130 13 -26 23 -67 26 -111 4 -64 1 -75 -29 -134 -130 -248 -509
-163 -509 115 0 133 68 230 192 270 49 16 131 11 183 -10z"/>
<path d="M484 1266 c-40 -40 -45 -83 -15 -132 54 -89 201 -48 201 56 0 66 -43
109 -108 110 -37 0 -50 -6 -78 -34z"/>
<path d="M1994 1282 c-70 -56 -52 -164 31 -192 73 -24 145 30 145 109 0 24 -9
42 -34 67 -28 28 -41 34 -77 34 -27 0 -53 -7 -65 -18z"/>
</g>
</svg>
